<mxfile host="app.diagrams.net" modified="2025-09-03T00:00:00.000Z" agent="Mozilla/5.0" version="24.7.7" type="device">
  <diagram id="G" name="G - Генерируемое ПО">
    <mxGraphModel dx="1600" dy="900" grid="1" gridSize="10" guides="1" tooltips="1" connect="1" arrows="1" fold="1" page="1" pageScale="1" pageWidth="1920" pageHeight="1080" math="0" shadow="0">
      <root>
        <mxCell id="0"/>
        <mxCell id="1" parent="0"/>
        <!-- Root -->
        <mxCell id="2" value="G-0 Комплекс исполняемых и статических артефактов HMS" style="rounded=1;whiteSpace=wrap;html=1;fillColor=#dae8fc;strokeColor=#6c8ebf;" vertex="1" parent="1">
          <mxGeometry x="830" y="20" width="360" height="60" as="geometry"/>
        </mxCell>

        <!-- Level 1 -->
        <mxCell id="3" value="G-1 Серверные сборки" style="rounded=1;whiteSpace=wrap;html=1;fillColor=#fff2cc;strokeColor=#d6b656;" vertex="1" parent="1">
          <mxGeometry x="240" y="130" width="300" height="60" as="geometry"/>
        </mxCell>
        <mxCell id="4" value="G-2 Клиентские артефакты" style="rounded=1;whiteSpace=wrap;html=1;fillColor=#fff2cc;strokeColor=#d6b656;" vertex="1" parent="1">
          <mxGeometry x="600" y="130" width="300" height="60" as="geometry"/>
        </mxCell>
        <mxCell id="5" value="G-3 Миграции/SQL-скрипты БД (сгенерированные)" style="rounded=1;whiteSpace=wrap;html=1;fillColor=#fff2cc;strokeColor=#d6b656;" vertex="1" parent="1">
          <mxGeometry x="960" y="130" width="360" height="60" as="geometry"/>
        </mxCell>
        <mxCell id="6" value="G-4 Пакеты публикации/релизы" style="rounded=1;whiteSpace=wrap;html=1;fillColor=#fff2cc;strokeColor=#d6b656;" vertex="1" parent="1">
          <mxGeometry x="1360" y="130" width="320" height="60" as="geometry"/>
        </mxCell>
        <mxCell id="7" value="G-5 Контейнерные образы (опционально)" style="rounded=1;whiteSpace=wrap;html=1;fillColor=#fff2cc;strokeColor=#d6b656;" vertex="1" parent="1">
          <mxGeometry x="480" y="260" width="360" height="60" as="geometry"/>
        </mxCell>
        <mxCell id="8" value="G-6 Конфигурации окружений" style="rounded=1;whiteSpace=wrap;html=1;fillColor=#fff2cc;strokeColor=#d6b656;" vertex="1" parent="1">
          <mxGeometry x="960" y="260" width="300" height="60" as="geometry"/>
        </mxCell>

        <!-- Edges from G-0 -->
        <mxCell id="e2_3" edge="1" parent="1" source="2" target="3" style="edgeStyle=orthogonalEdgeStyle;rounded=1;endArrow=block;html=1;strokeColor=#6c8ebf;"/>
        <mxCell id="e2_4" edge="1" parent="1" source="2" target="4" style="edgeStyle=orthogonalEdgeStyle;rounded=1;endArrow=block;html=1;strokeColor=#6c8ebf;"/>
        <mxCell id="e2_5" edge="1" parent="1" source="2" target="5" style="edgeStyle=orthogonalEdgeStyle;rounded=1;endArrow=block;html=1;strokeColor=#6c8ebf;"/>
        <mxCell id="e2_6" edge="1" parent="1" source="2" target="6" style="edgeStyle=orthogonalEdgeStyle;rounded=1;endArrow=block;html=1;strokeColor=#6c8ebf;"/>
        <mxCell id="e2_7" edge="1" parent="1" source="2" target="7" style="edgeStyle=orthogonalEdgeStyle;rounded=1;endArrow=block;html=1;strokeColor=#6c8ebf;"/>
        <mxCell id="e2_8" edge="1" parent="1" source="2" target="8" style="edgeStyle=orthogonalEdgeStyle;rounded=1;endArrow=block;html=1;strokeColor=#6c8ebf;"/>

        <!-- Level 2 under G-1 -->
        <mxCell id="9" value="G-1.1 API (исполняемое/служба)" style="rounded=1;whiteSpace=wrap;html=1;fillColor=#e1d5e7;strokeColor=#9673a6;" vertex="1" parent="1">
          <mxGeometry x="120" y="240" width="280" height="60" as="geometry"/>
        </mxCell>
        <mxCell id="10" value="G-1.2 Core (доменные модели/интерфейсы)" style="rounded=1;whiteSpace=wrap;html=1;fillColor=#e1d5e7;strokeColor=#9673a6;" vertex="1" parent="1">
          <mxGeometry x="240" y="330" width="320" height="60" as="geometry"/>
        </mxCell>
        <mxCell id="11" value="G-1.3 Infrastructure (ORM/репозитории/маппинги)" style="rounded=1;whiteSpace=wrap;html=1;fillColor=#e1d5e7;strokeColor=#9673a6;" vertex="1" parent="1">
          <mxGeometry x="20" y="330" width="360" height="60" as="geometry"/>
        </mxCell>

        <!-- Edges from G-1 -->
        <mxCell id="e3_9" edge="1" parent="1" source="3" target="9" style="edgeStyle=orthogonalEdgeStyle;rounded=1;endArrow=block;html=1;strokeColor=#d6b656;"/>
        <mxCell id="e3_10" edge="1" parent="1" source="3" target="10" style="edgeStyle=orthogonalEdgeStyle;rounded=1;endArrow=block;html=1;strokeColor=#d6b656;"/>
        <mxCell id="e3_11" edge="1" parent="1" source="3" target="11" style="edgeStyle=orthogonalEdgeStyle;rounded=1;endArrow=block;html=1;strokeColor=#d6b656;"/>

        <!-- Level 2 under G-2 -->
        <mxCell id="12" value="G-2.1 JS/CSS-бандлы (минифицированные + sourcemaps)" style="rounded=1;whiteSpace=wrap;html=1;fillColor=#e1d5e7;strokeColor=#9673a6;" vertex="1" parent="1">
          <mxGeometry x="620" y="240" width="380" height="60" as="geometry"/>
        </mxCell>
        <mxCell id="13" value="G-2.2 Статические ассеты (html, иконки, manifest)" style="rounded=1;whiteSpace=wrap;html=1;fillColor=#e1d5e7;strokeColor=#9673a6;" vertex="1" parent="1">
          <mxGeometry x="740" y="330" width="360" height="60" as="geometry"/>
        </mxCell>

        <!-- Edges from G-2 -->
        <mxCell id="e4_12" edge="1" parent="1" source="4" target="12" style="edgeStyle=orthogonalEdgeStyle;rounded=1;endArrow=block;html=1;strokeColor=#d6b656;"/>
        <mxCell id="e4_13" edge="1" parent="1" source="4" target="13" style="edgeStyle=orthogonalEdgeStyle;rounded=1;endArrow=block;html=1;strokeColor=#d6b656;"/>
      </root>
    </mxGraphModel>
  </diagram>

  <diagram id="S" name="S - Системное ПО">
    <mxGraphModel dx="1600" dy="900" grid="1" gridSize="10" guides="1" tooltips="1" connect="1" arrows="1" fold="1" page="1" pageScale="1" pageWidth="1920" pageHeight="1080" math="0" shadow="0">
      <root>
        <mxCell id="0"/>
        <mxCell id="1" parent="0"/>

        <!-- Root -->
        <mxCell id="20" value="S-0 Платформа исполнения и сервисы среды" style="rounded=1;whiteSpace=wrap;html=1;fillColor=#dae8fc;strokeColor=#6c8ebf;" vertex="1" parent="1">
          <mxGeometry x="820" y="20" width="380" height="60" as="geometry"/>
        </mxCell>

        <!-- Level 1 -->
        <mxCell id="21" value="S-1 ОС и управление ресурсами" style="rounded=1;whiteSpace=wrap;html=1;fillColor=#fff2cc;strokeColor=#d6b656;" vertex="1" parent="1">
          <mxGeometry x="220" y="120" width="340" height="60" as="geometry"/>
        </mxCell>
        <mxCell id="22" value="S-2 Платформа выполнения и инструменты" style="rounded=1;whiteSpace=wrap;html=1;fillColor=#fff2cc;strokeColor=#d6b656;" vertex="1" parent="1">
          <mxGeometry x="600" y="120" width="380" height="60" as="geometry"/>
        </mxCell>
        <mxCell id="23" value="S-3 СУБД" style="rounded=1;whiteSpace=wrap;html=1;fillColor=#fff2cc;strokeColor=#d6b656;" vertex="1" parent="1">
          <mxGeometry x="1020" y="120" width="200" height="60" as="geometry"/>
        </mxCell>
        <mxCell id="24" value="S-4 Веб-сервер/прокси/TLS" style="rounded=1;whiteSpace=wrap;html=1;fillColor=#fff2cc;strokeColor=#d6b656;" vertex="1" parent="1">
          <mxGeometry x="1260" y="120" width="300" height="60" as="geometry"/>
        </mxCell>
        <mxCell id="25" value="S-5 Контейнерная платформа (опц.)" style="rounded=1;whiteSpace=wrap;html=1;fillColor=#fff2cc;strokeColor=#d6b656;" vertex="1" parent="1">
          <mxGeometry x="340" y="240" width="320" height="60" as="geometry"/>
        </mxCell>
        <mxCell id="26" value="S-6 CI/CD и хранилища артефактов" style="rounded=1;whiteSpace=wrap;html=1;fillColor=#fff2cc;strokeColor=#d6b656;" vertex="1" parent="1">
          <mxGeometry x="700" y="240" width="360" height="60" as="geometry"/>
        </mxCell>
        <mxCell id="27" value="S-7 Мониторинг/логирование/трейсинг" style="rounded=1;whiteSpace=wrap;html=1;fillColor=#fff2cc;strokeColor=#d6b656;" vertex="1" parent="1">
          <mxGeometry x="1100" y="240" width="380" height="60" as="geometry"/>
        </mxCell>
        <mxCell id="28" value="S-8 Резервное копирование/восстановление" style="rounded=1;whiteSpace=wrap;html=1;fillColor=#fff2cc;strokeColor=#d6b656;" vertex="1" parent="1">
          <mxGeometry x="520" y="360" width="380" height="60" as="geometry"/>
        </mxCell>
        <mxCell id="29" value="S-9 Управление секретами/конфигурациями" style="rounded=1;whiteSpace=wrap;html=1;fillColor=#fff2cc;strokeColor=#d6b656;" vertex="1" parent="1">
          <mxGeometry x="980" y="360" width="420" height="60" as="geometry"/>
        </mxCell>

        <!-- Edges from S-0 -->
        <mxCell id="e20_21" edge="1" parent="1" source="20" target="21" style="edgeStyle=orthogonalEdgeStyle;rounded=1;endArrow=block;html=1;strokeColor=#6c8ebf;"/>
        <mxCell id="e20_22" edge="1" parent="1" source="20" target="22" style="edgeStyle=orthogonalEdgeStyle;rounded=1;endArrow=block;html=1;strokeColor=#6c8ebf;"/>
        <mxCell id="e20_23" edge="1" parent="1" source="20" target="23" style="edgeStyle=orthogonalEdgeStyle;rounded=1;endArrow=block;html=1;strokeColor=#6c8ebf;"/>
        <mxCell id="e20_24" edge="1" parent="1" source="20" target="24" style="edgeStyle=orthogonalEdgeStyle;rounded=1;endArrow=block;html=1;strokeColor=#6c8ebf;"/>
        <mxCell id="e20_25" edge="1" parent="1" source="20" target="25" style="edgeStyle=orthogonalEdgeStyle;rounded=1;endArrow=block;html=1;strokeColor=#6c8ebf;"/>
        <mxCell id="e20_26" edge="1" parent="1" source="20" target="26" style="edgeStyle=orthogonalEdgeStyle;rounded=1;endArrow=block;html=1;strokeColor=#6c8ebf;"/>
        <mxCell id="e20_27" edge="1" parent="1" source="20" target="27" style="edgeStyle=orthogonalEdgeStyle;rounded=1;endArrow=block;html=1;strokeColor=#6c8ebf;"/>
        <mxCell id="e20_28" edge="1" parent="1" source="20" target="28" style="edgeStyle=orthogonalEdgeStyle;rounded=1;endArrow=block;html=1;strokeColor=#6c8ebf;"/>
        <mxCell id="e20_29" edge="1" parent="1" source="20" target="29" style="edgeStyle=orthogonalEdgeStyle;rounded=1;endArrow=block;html=1;strokeColor=#6c8ebf;"/>

        <!-- Level 2 under S-2 -->
        <mxCell id="30" value="S-2.1 .NET SDK/Runtime" style="rounded=1;whiteSpace=wrap;html=1;fillColor=#e1d5e7;strokeColor=#9673a6;" vertex="1" parent="1">
          <mxGeometry x="580" y="330" width="260" height="60" as="geometry"/>
        </mxCell>
        <mxCell id="31" value="S-2.2 Node.js/npm" style="rounded=1;whiteSpace=wrap;html=1;fillColor=#e1d5e7;strokeColor=#9673a6;" vertex="1" parent="1">
          <mxGeometry x="860" y="330" width="240" height="60" as="geometry"/>
        </mxCell>

        <mxCell id="e22_30" edge="1" parent="1" source="22" target="30" style="edgeStyle=orthogonalEdgeStyle;rounded=1;endArrow=block;html=1;strokeColor=#d6b656;"/>
        <mxCell id="e22_31" edge="1" parent="1" source="22" target="31" style="edgeStyle=orthogonalEdgeStyle;rounded=1;endArrow=block;html=1;strokeColor=#d6b656;"/>
      </root>
    </mxGraphModel>
  </diagram>
</mxfile>